<?xml version="1.0" encoding="UTF-8"?>
<!DOCTYPE svg PUBLIC "-//W3C//DTD SVG 1.1//EN" "http://www.w3.org/Graphics/SVG/1.1/DTD/svg11.dtd">
<!-- Creator: CorelDRAW -->
<svg xmlns="http://www.w3.org/2000/svg" xml:space="preserve" width="512px" height="512px" version="1.1" style="shape-rendering:geometricPrecision; text-rendering:geometricPrecision; image-rendering:optimizeQuality; fill-rule:evenodd; clip-rule:evenodd"
viewBox="0 0 512 512"
 xmlns:xlink="http://www.w3.org/1999/xlink"
 xmlns:xodm="http://www.corel.com/coreldraw/odm/2003">
 <defs>
  <style type="text/css">
   <![CDATA[
    .fil0 {fill:url(#id0)}
   ]]>
  </style>
  <linearGradient id="id0" gradientUnits="userSpaceOnUse" x1="256" y1="487.5" x2="256" y2="24.5">
   <stop offset="0" style="stop-opacity:1; stop-color:#1AA8DC"/>
   <stop offset="0.490196" style="stop-opacity:1; stop-color:#AE3B89"/>
   <stop offset="1" style="stop-opacity:1; stop-color:#F26270"/>
  </linearGradient>
 </defs>
 <g id="Layer_x0020_1">
  <metadata id="CorelCorpID_0Corel-Layer"/>
  <path class="fil0" d="M55 301.5c-1,0 -2.1,-0.2 -3.1,-0.7 -2.4,-1.2 -3.9,-3.6 -3.9,-6.3l0 -30 -23 0c-13.8,0 -25,-11.2 -25,-25l0 -191c0,-13 11.4,-24 25,-24l247 0c12.8,0 24,11.2 24,24l0 77 67 0c3.9,0 7,3.1 7,7l0 58.16c37.36,1.69 72.14,16.88 98.6,43.14 28,27.9 43.4,65.1 43.4,104.7 0,39.7 -15.4,77.1 -43.4,105.2 -28.1,28.2 -65.6,43.8 -105.6,43.8 -79.27,0 -144.19,-63.04 -147.83,-142l-58.17 0c-3.9,0 -7,-3.1 -7,-7l0 -74 -45.6 0 -45.1 35.5c-1.2,1 -2.8,1.5 -4.3,1.5zm160.17 30c0.89,-18.22 5.25,-36.13 12.88,-53l43.95 0c21.12,0 38,-18.08 38,-39l0 -39.46c14.42,-5.55 29.8,-8.69 46,-9.39l0 -51.15 -60 0 0 100c0,13.6 -11,25 -24,25l-108 0 0 67 51.17 0zm203.83 83c-2.8,0 -5.4,-1.6 -6.5,-4.4l-18.5 -45.6 -61.32 0 -18.18 45.6c-1.1,2.7 -3.7,4.4 -6.5,4.4 -0.9,0 -1.7,-0.2 -2.6,-0.5 -3.6,-1.4 -5.3,-5.5 -3.9,-9.1l54.74 -137.35c0.58,-2.01 2.07,-3.74 4.16,-4.55 3.6,-1.5 7.7,0.3 9.1,3.9l34.99 86.23c0.81,1.02 1.33,2.26 1.47,3.62l19.54 48.15c1.5,3.6 -0.3,7.7 -3.9,9.1 -0.8,0.3 -1.7,0.5 -2.6,0.5zm-30.69 -64l-25.25 -62.24 -24.8 62.24 50.05 0zm-173.31 -240l-24.6 0c-2.06,7.36 -6.66,21.39 -15.5,37.9 -4.4,8.2 -10.21,17.62 -17.72,27.32 11.02,12.51 24.9,24.65 42.32,34.58 3.4,1.9 4.5,6.2 2.6,9.6 -1.3,2.3 -3.7,3.6 -6.1,3.6 -1.2,0 -2.4,-0.3 -3.5,-0.9 -18.32,-10.47 -32.93,-23.13 -44.47,-35.92 -11.55,12.82 -26.18,25.53 -44.53,36.02 -1.1,0.5 -2.3,0.8 -3.5,0.8 -2.4,0 -4.8,-1.3 -6.1,-3.5 -1.9,-3.4 -0.8,-7.6 2.6,-9.6 17.44,-9.97 31.34,-22.14 42.36,-34.68 -7.53,-9.72 -13.35,-19.17 -17.76,-27.42 -8.8,-16.44 -13.44,-30.41 -15.52,-37.8l-24.58 0c-3.9,0 -7,-3.1 -7,-7 0,-3.9 3.1,-7 7,-7l29.22 0c0.55,-0.07 1.09,-0.06 1.62,0l29.16 0 0 -26c0,-3.9 3.1,-7 7,-7 3.9,0 7,3.1 7,7l0 26 60 0c3.9,0 7,3.1 7,7 0,3.9 -3.1,7 -7,7zm-66.98 53.9c16.05,-21.6 24.2,-42.65 27.76,-53.9l-27.78 0 -27.75 0c3.58,11.29 11.73,32.34 27.77,53.9z"/>
 </g>
</svg>
